<svg width="150" height="150" viewBox="0 0 150 150" fill="none" xmlns="http://www.w3.org/2000/svg" >
<path d="M75.0155 6.4375C52.7496 6.4375 34.6702 24.9843 34.6702 47.897C34.6702 70.8097 52.7186 89.3565 75.0155 89.3565C97.3124 89.3565 115.361 70.7778 115.361 47.897C115.361 25.0162 97.2813 6.4375 75.0155 6.4375ZM85.3111 33.238C85.2801 29.5414 88.3192 27.0239 91.2032 27.0557C94.3353 27.0876 97.0953 29.7007 97.1573 33.2061C97.2193 36.616 94.5834 39.2609 91.2342 39.2928C87.4199 39.3566 85.2491 36.1379 85.3111 33.238ZM74.0231 25.9085C77.7134 25.9085 80.5974 29.1271 80.4114 32.6644C80.5974 35.6599 78.3026 39.4203 73.8371 39.3565C69.7126 39.2928 67.3248 36.0423 67.3868 32.6325C67.3868 28.7766 70.1468 25.9085 74.0231 25.9085ZM57.1532 32.1226C60.3163 32.1545 62.239 34.7039 62.0219 37.317C62.1149 40.695 59.2309 42.4796 56.9981 42.4477C54.1761 42.384 52.0054 40.0895 52.0364 37.1896C52.1294 34.2259 54.3002 32.0908 57.1532 32.1226ZM61.4327 57.266C61.6808 57.9353 61.6498 58.5407 61.5877 59.21C61.4327 60.7715 61.4017 62.333 61.3086 63.9263C61.2466 65.0417 60.7194 65.5516 59.8201 65.5197C58.7347 65.4878 57.9905 64.9142 58.0215 63.9263C58.1455 61.6319 57.8664 59.3374 58.2696 57.043C58.3006 56.8199 58.3316 56.565 58.3316 56.31C58.3316 55.4815 57.9905 55.0991 57.1532 55.0991C56.2228 55.0672 55.8507 55.4177 55.8817 56.4056C55.9127 58.2858 56.0058 60.166 56.0678 62.0462C56.0988 62.6516 56.1298 63.2571 56.0988 63.8626C56.0368 64.9461 55.5406 65.5197 54.6413 65.5197C53.5559 65.5197 52.8116 64.9142 52.7496 63.8307C52.6876 62.9384 52.6876 62.0143 52.6876 61.0901C52.6256 57.6484 52.5635 54.1749 52.5015 50.3189C52.1914 51.5936 51.6332 52.3266 51.5092 53.3145C51.4472 53.8244 51.1681 54.3342 50.951 54.8123C50.5168 55.6727 50.1447 55.7683 49.2454 55.3221C49.0903 55.2584 48.9663 55.1309 48.7182 54.9397C48.7182 53.4101 48.6872 51.8804 49.1834 50.3508C49.6485 48.9168 50.0206 47.4827 50.7029 46.1443C51.1991 45.1564 51.9433 44.5828 52.7496 44.0092C52.8116 43.9773 52.8426 43.9455 52.9047 43.9136C55.1685 43.1806 57.4943 42.7345 59.8511 43.4356C60.6264 43.6587 61.4637 43.7224 62.1149 44.3597C62.4871 44.7421 62.7351 45.0927 62.7041 45.5707C62.6421 46.3036 62.5801 47.0366 62.363 47.7058C61.8358 49.2673 61.5567 50.8607 61.2466 52.4541C61.1846 52.6771 61.2156 52.9321 61.1536 53.187C60.6884 54.5892 60.9055 55.9595 61.4327 57.266ZM84.1327 56.565C83.5125 56.8518 82.5511 56.5331 82.117 55.8957C81.7759 55.4177 81.4968 54.9079 81.4037 54.2705C81.1867 53.0277 80.8455 51.8167 80.5044 50.3827C80.0703 51.1475 80.1013 51.8486 80.0393 52.5178C79.5431 57.266 79.7602 62.078 79.5741 66.8581C79.5741 67.1131 79.5741 67.3361 79.5431 67.5911C79.419 68.8339 78.2716 69.9174 77.0312 69.8855C76.8141 69.8855 76.566 69.7581 76.411 69.6306C75.4496 68.802 74.9224 67.7504 75.1395 66.4439C75.6977 63.1934 75.6357 59.9429 75.6047 56.6606C75.6047 56.5331 75.5427 56.4375 75.4806 56.2144C74.5813 55.8001 73.589 56.1188 72.7207 56.0232C72.1315 56.4375 72.2245 56.9474 72.2555 57.4254C72.3175 59.8473 72.4106 62.2692 72.4726 64.6912C72.5036 65.5516 72.5966 66.3801 72.5966 67.2405C72.5966 67.9735 72.5966 68.7383 72.0074 69.2482C71.4802 69.7262 70.829 70.2042 70.0847 69.8537C69.2785 69.5031 68.5032 69.0251 68.4101 67.9416C68.3791 67.4636 68.2861 66.9856 68.2551 66.5076C68.1621 64.4043 68.007 62.2692 67.976 60.166C67.914 57.0748 67.883 53.9837 67.8519 50.8926C67.8519 50.542 67.7589 50.2233 67.6659 49.6497C67.4488 49.9365 67.2937 50.064 67.2627 50.1915C67.0457 51.6255 66.4875 52.9639 66.3634 54.4298C66.3014 55.0991 65.8672 55.7683 65.6192 56.4694C65.185 56.565 64.8129 56.7562 64.4097 56.788C63.2933 56.8518 62.6111 56.2144 62.6421 55.0672C62.6731 54.1749 62.394 53.2189 63.0763 52.4541C63.1693 52.3266 63.2003 52.1035 63.2003 51.9442C63.1693 50.8288 63.6345 49.8409 63.8825 48.7893C64.2857 46.9729 65.123 45.3795 65.9913 43.8499C66.7356 42.5114 67.914 41.5873 69.5886 41.173C71.5112 40.695 73.4339 40.5994 75.3566 40.5994C76.9071 40.5994 78.3337 41.0774 79.7291 41.7466C80.8455 42.2884 81.5588 43.1169 82.055 44.1048C82.8613 45.6982 83.4815 47.419 84.0397 49.1398C84.6289 50.9563 85.001 52.8683 85.1871 54.7804C85.2181 55.5133 84.877 56.2463 84.1327 56.565ZM101.189 54.0793C100.879 54.9716 100.227 55.2584 99.3591 54.9397C99.08 54.8441 98.8319 54.6848 98.6458 54.5573C97.7465 52.5815 97.8085 50.3827 96.9402 48.4706C96.4751 48.6618 96.5991 49.0124 96.5991 49.2673C96.5991 51.5618 96.6301 53.8881 96.5991 56.1826C96.5681 58.955 96.4751 61.7593 96.382 64.5318C96.351 65.8384 95.8859 66.4439 94.7695 66.8263C93.7771 67.1449 92.8468 66.6351 92.6297 65.5834C92.5367 65.1054 92.5057 64.6274 92.5057 64.1494C92.5367 61.1857 92.5987 58.2221 92.6607 55.2584C92.6607 55.0991 92.5987 54.9079 92.5677 54.7485C91.3272 54.2386 91.2962 54.2386 89.8697 54.7166C89.4976 55.1947 89.5906 55.7364 89.6527 56.2782C89.9628 59.0506 89.9318 61.8231 89.9628 64.6274C89.9628 65.0417 89.8387 65.4878 89.6527 65.8384C89.2185 66.6988 88.4432 66.9856 87.3888 66.7307C86.7066 66.5713 86.1484 65.8384 86.1174 65.0098C86.0244 62.9384 85.9623 60.8989 85.9313 58.8275C85.9003 58.0946 86.0244 57.3935 86.4275 56.7562C86.6446 56.4056 86.7996 55.9913 86.8307 55.5771C86.8617 54.0793 86.8927 52.5497 86.4275 51.0838C86.1484 50.1596 85.9313 49.2036 85.7453 48.2794C85.6212 47.6739 85.4352 47.1322 85.1251 46.5905C84.6289 45.7619 84.2878 44.8696 84.1327 43.8817C84.0707 43.4037 84.1327 43.0213 84.4428 42.7026C85.094 42.0015 85.8383 41.4279 86.7376 41.0774C89.2495 40.1214 91.8544 40.2807 94.3973 40.6312C95.3897 40.7906 96.351 41.3961 97.2813 41.9059C97.6535 42.129 97.9326 42.5752 98.1807 42.9894C99.142 44.6465 99.9483 46.4311 100.351 48.2794C100.693 49.8091 101.375 51.2431 101.313 52.8365C101.313 53.2507 101.344 53.6969 101.189 54.0793Z" fill="url(#paint0_linear_199:23)"/>
<path d="M75.0155 0C49.2764 0 28.4061 21.4468 28.4061 47.8967C28.4061 74.3467 49.2764 95.7935 75.0155 95.7935C100.755 95.7935 121.625 74.3467 121.625 47.8967C121.625 21.4468 100.755 0 75.0155 0ZM75.0155 93.3716C50.5789 93.3716 30.7629 73.0083 30.7629 47.8967C30.7629 22.7852 50.5789 2.42192 75.0155 2.42192C99.4522 2.42192 119.268 22.7852 119.268 47.8967C119.268 73.0083 99.4522 93.3716 75.0155 93.3716Z" fill="url(#paint1_linear_199:23)"/>
<path d="M0 105.737V148.439C0 149.299 0.682241 150.001 1.51954 150.001L9.55137 149.969C10.3887 149.969 11.0709 149.268 11.0709 148.407V135.82H35.6936C40.3142 135.82 44.0666 131.964 44.0666 127.215V112.811C44.0666 108.063 40.3142 104.207 35.6936 104.207H1.51954C0.682241 104.207 0 104.876 0 105.737ZM33.5539 124.857H11.7842C11.381 124.857 11.0399 124.475 11.0399 123.997V115.711C11.0399 115.233 11.381 114.851 11.7842 114.851H33.5539C33.957 114.851 34.2981 115.233 34.2981 115.711V123.997C34.2981 124.475 33.988 124.857 33.5539 124.857Z" fill="black"/>
<path d="M88.7533 104.207H61.2776C56.688 104.207 52.9977 108.031 52.9977 112.716V141.492C52.9977 146.208 56.719 150.001 61.2776 150.001H88.7533C93.3429 150.001 97.0332 146.176 97.0332 141.492V112.747C97.0332 108.031 93.3119 104.207 88.7533 104.207ZM86.4275 138.783H64.9059C64.4407 138.783 64.0376 138.369 64.0376 137.891V115.775C64.0376 115.297 64.4407 114.883 64.9059 114.883H86.4275C86.8927 114.883 87.2958 115.297 87.2958 115.775V137.891C87.2958 138.401 86.8927 138.783 86.4275 138.783Z" fill="black"/>
<path d="M149.101 104.207H106.864C106.368 104.207 105.964 104.621 105.964 105.131V113.958C105.964 114.468 106.368 114.883 106.864 114.883H121.563C122.059 114.883 122.462 115.297 122.462 115.807V149.045C122.462 149.554 122.865 149.969 123.362 149.969H132.603C133.099 149.969 133.502 149.554 133.502 149.045V115.807C133.502 115.297 133.905 114.883 134.401 114.883H149.101C149.597 114.883 150 114.468 150 113.958V105.131C150 104.621 149.597 104.207 149.101 104.207Z" fill="black"/>
<defs>
<linearGradient id="paint0_linear_199:23" x1="40.0615" y1="68.6212" x2="110.888" y2="28.8287" gradientUnits="userSpaceOnUse">
<stop stop-color="#9182F6"/>
<stop offset="1" stop-color="#6F00BB"/>
</linearGradient>
<linearGradient id="paint1_linear_199:23" x1="28.4032" y1="47.8891" x2="121.607" y2="47.8891" gradientUnits="userSpaceOnUse">
<stop stop-color="#9182F6"/>
<stop offset="1" stop-color="#6F00BB"/>
</linearGradient>
</defs>
</svg>

