<svg width="10" height="10" viewBox="0 0 10 10" fill="none" xmlns="http://www.w3.org/2000/svg">
<path d="M9.88701 8.5047L5.82862 0.525671C5.74784 0.366652 5.62838 0.233878 5.48284 0.141357C5.33731 0.0488366 5.1711 0 5.00175 0C4.8324 0 4.6662 0.0488366 4.52066 0.141357C4.37513 0.233878 4.25567 0.366652 4.17488 0.525671L0.119418 8.5047C0.0392214 8.65812 -0.00192927 8.83132 6.94905e-05 9.00703C0.00206825 9.18275 0.0471466 9.35483 0.13081 9.50612C0.214472 9.65742 0.333796 9.78263 0.476883 9.86929C0.619969 9.95594 0.781817 10.001 0.946289 9.99998H9.06014C9.22294 9.99981 9.38291 9.9545 9.52441 9.86849C9.66591 9.78248 9.7841 9.65871 9.86742 9.50929C9.95075 9.35986 9.99636 9.18989 9.99979 9.016C10.0032 8.8421 9.96436 8.67023 9.88701 8.51718V8.5047ZM4.62776 2.50794C4.62776 2.39203 4.67086 2.28087 4.74757 2.19891C4.82428 2.11695 4.92833 2.0709 5.03681 2.0709C5.1453 2.0709 5.24935 2.11695 5.32606 2.19891C5.40277 2.28087 5.44587 2.39203 5.44587 2.50794V6.25396C5.44587 6.36987 5.40277 6.48103 5.32606 6.56299C5.24935 6.64495 5.1453 6.691 5.03681 6.691C4.92833 6.691 4.82428 6.64495 4.74757 6.56299C4.67086 6.48103 4.62776 6.36987 4.62776 6.25396V2.50794ZM5.03681 8.70448C4.9328 8.70448 4.83111 8.67153 4.74463 8.60979C4.65814 8.54804 4.59073 8.46029 4.55092 8.35761C4.51112 8.25494 4.5007 8.14196 4.521 8.03296C4.54129 7.92396 4.59138 7.82384 4.66493 7.74525C4.73848 7.66667 4.83219 7.61315 4.93421 7.59147C5.03623 7.56979 5.14198 7.58092 5.23808 7.62345C5.33418 7.66598 5.41632 7.738 5.4741 7.8304C5.53189 7.92281 5.56274 8.03145 5.56274 8.14258C5.56274 8.21637 5.54914 8.28944 5.52271 8.35761C5.49628 8.42579 5.45754 8.48773 5.4087 8.53991C5.35986 8.59208 5.30189 8.63347 5.23808 8.66171C5.17427 8.68995 5.10588 8.70448 5.03681 8.70448Z" fill="#B037C5"/>
</svg>
